<svg version="1.1" xmlns="http://www.w3.org/2000/svg" xmlns:xlink="http://www.w3.org/1999/xlink" width="159.8014" height="84.05" viewBox="0,0,159.8014,84.05"><g transform="translate(-141.23027,-125.90064)"><g data-paper-data="{&quot;isPaintingLayer&quot;:true}" fill-rule="nonzero" stroke="none" stroke-linecap="butt" stroke-linejoin="miter" stroke-miterlimit="10" stroke-dasharray="" stroke-dashoffset="0" style="mix-blend-mode: normal"><path d="M141.23027,209.95064v-84.05h159.8014v84.05z" fill="#72ff00" stroke-width="0"/><path d="M179.9205,155.87528c-3.47782,3.78383 -5.96573,-2.72695 -11.48856,-2.03102c-1.47754,0.18618 -5.54897,2.82788 -6.38256,4.06205c-0.7678,1.13674 -1.16543,5.18521 -1.91476,8.80113c-0.7129,3.43989 -4.57436,7.04426 -3.82952,12.18615c0.10472,0.72036 1.51713,4.36938 2.55304,5.41604c0.00066,0.0007 6.13491,3.33903 6.38256,3.38509c5.73979,1.07438 13.36182,-1.42105 12.76505,-11.50918c-1.06586,-2.02899 -6.84142,0.93768 -7.02077,-2.03102c2.15409,-2.45413 6.8791,-2.1806 10.85029,-2.70799c0.46592,8.00833 1.5267,15.01872 0.63828,21.66424c-3.57422,0.85705 -2.13944,-3.59828 -3.19131,-5.41604c-4.19072,-0.16119 -5.99192,4.20623 -9.5738,4.73901c-8.98403,1.33712 -15.33273,-6.64209 -17.87106,-14.21717c1.87966,-14.47985 6.85547,-25.67617 17.87106,-30.46536c4.15443,1.54899 10.60271,3.97946 10.21208,8.1241z" fill="#00fff4" stroke-width="0.96727"/><path d="M182.03828,200.55781c-1.27649,0 -2.55304,0 -3.82952,0c1.20694,-1.34314 2.23769,-1.15361 3.82952,-0.67696c0,0.22544 0,0.45152 0,0.67696z" fill="#ffffff" stroke-width="0.96727"/><path d="M185.86781,188.37167c0,2.25647 0.12702,4.52448 0,6.7701c-1.23373,1.49685 -0.80416,4.07962 -1.91476,5.41604c-0.47292,0.34191 -1.27972,0.01694 -1.91476,0c-3.13701,0.00203 -4.27499,0.67297 -5.10601,0c-1.66395,-1.4867 0.49845,-4.89404 -1.91476,-6.09307c-3.46957,2.83124 -10.9684,2.3567 -17.23285,2.70806c-7.86076,-3.62271 -10.29951,-12.99588 -10.85035,-24.37229c0,-0.90248 0,-1.80558 0,-2.70806c1.92307,-7.66369 5.0486,-13.64779 9.5738,-18.95625c2.79368,-3.18323 7.35142,-4.04035 11.32901,-5.41604c1.21076,-0.45901 2.63981,-0.23153 3.98907,0c0.33448,0.06096 0,0.45159 0,0.67703c4.72243,1.9863 9.75124,3.6484 12.12684,8.1241c-1.76537,2.86715 -3.34446,5.91368 -5.74428,8.1241c-2.29642,-0.90451 -2.60978,2.19621 -4.4678,2.03102c-3.02529,-1.58966 -5.8847,-7.39156 -8.93553,-6.09307c-3.87485,6.53381 -6.71314,15.56031 -5.10601,23.76294c1.51139,2.70939 5.64722,3.91311 9.5738,3.99437c0.94267,-0.80764 1.94346,-2.00058 1.91476,-4.06205c-1.32182,-0.4028 -4.09505,0.83276 -4.4678,-0.67696c-2.88171,-8.66982 -1.15778,-7.40241 1.27649,-8.97037c4.77225,-3.07362 10.77757,-4.95165 16.59464,-2.53882c1.92941,5.17842 -0.3453,13.55169 1.27649,18.27922zM169.91144,147.75118c-11.01558,4.78919 -15.9914,15.98551 -17.87106,30.46536c2.53832,7.57508 8.88703,15.55429 17.87106,14.21717c3.58188,-0.53278 5.38308,-4.9002 9.5738,-4.73901c1.05187,1.81776 -0.38291,6.27309 3.19131,5.41604c0.88843,-6.64552 -0.17235,-13.6559 -0.63828,-21.66424c-3.97119,0.52739 -8.6962,0.25386 -10.85029,2.70799c0.17935,2.96871 5.95491,0.00203 7.02077,2.03102c0.59677,10.08814 -7.02525,12.58356 -12.76505,11.50918c-0.24764,-0.04605 -6.18275,-2.96129 -6.38256,-3.38509c-0.86164,-1.7575 -2.53324,-3.40266 -2.55304,-5.41604c-0.04335,-4.30373 1.14504,-8.55945 2.23393,-12.69394c0.8361,-2.89892 1.69074,-5.9827 3.51035,-8.29334c1.58734,-2.01612 4.90502,-3.87587 6.38256,-4.06205c5.52284,-0.69593 8.01074,5.81486 11.48856,2.03102c0.39063,-4.14464 -6.05765,-6.57511 -10.21208,-8.1241z" fill="#000000" stroke-width="0.96727"/><path d="M202.87309,160.06768c1.36988,-0.28917 2.84223,-0.26844 4.22813,0l6.34225,1.94332c2.14081,0.67058 5.77376,8.25327 7.0469,13.0852c1.0777,4.35721 1.37885,9.62184 -0.23492,13.47383c-4.07923,6.04871 -7.20615,13.12554 -16.91258,12.95561c-1.09606,0 -2.19255,0 -3.28856,0c-5.03435,-2.04751 -6.43012,-8.10816 -10.33551,-11.40096c0,-1.9003 0,-3.80118 0,-5.70048c0,-6.48761 -0.77279,-6.80429 0,-8.29156c2.46875,-7.30957 8.19698,-11.35068 13.15428,-16.06496zM193.00737,185.9789c3.68602,4.64122 5.00288,10.02556 10.33551,10.88269c6.40752,1.0297 13.26933,-3.92241 15.03343,-8.29156c4.79094,-11.86527 -3.38725,-29.6637 -13.62407,-26.94765c-8.26698,3.8421 -11.44935,13.00947 -11.74487,24.35652z" fill="#000000" stroke-width="0.98532"/><path d="M204.54922,161.62238c10.23681,-2.71605 18.41501,15.08238 13.62407,26.94765c-1.7641,4.36915 -8.62591,9.32126 -15.03343,8.29156c-5.33263,-0.85714 -6.64949,-6.24147 -10.33551,-10.88269c0.29552,-11.34705 3.47789,-20.51442 11.74487,-24.35652zM197.50231,183.38777c0.64596,3.7996 4.534,9.51618 8.45631,9.84626c10.13487,0.85298 10.6399,-13.12349 8.45626,-22.28366c-8.80251,-11.49626 -18.95665,0.41976 -16.91258,12.4374z" fill="#00fff4" stroke-width="0.98532"/><path d="M214.61791,170.95038c2.18363,9.16016 1.67861,23.13664 -8.45626,22.28366c-3.92232,-0.33008 -7.81035,-6.04666 -8.45631,-9.84626c-2.04407,-12.01764 8.11006,-23.93366 16.91258,-12.4374zM200.05432,185.9789c0.82448,1.77234 4.52036,5.22681 6.10733,5.18221c2.60455,-0.07358 5.52664,-5.17027 5.63754,-9.84626c0.1818,-7.65364 -2.66753,-13.00947 -9.86572,-11.40091c-1.5381,3.41508 -4.35544,10.74384 -1.87915,16.06496z" fill="#000000" stroke-width="0.98532"/><path d="M237.91275,159.94155c1.5958,-0.30537 3.31096,-0.28349 4.92542,0l7.38819,2.05225c2.49387,0.70817 6.72595,8.71589 8.20906,13.81866c1.25543,4.60144 1.60624,10.16116 -0.27366,14.22906c-4.75196,6.38775 -8.39457,13.86126 -19.70175,13.6818c-1.27682,0 -2.55414,0 -3.8309,0c-5.8646,-2.16228 -7.49056,-8.56264 -12.04001,-12.04001c0,-2.00682 0,-4.01424 0,-6.02001c0,-6.85126 -0.90024,-7.18568 0,-8.75632c2.87589,-7.71928 9.54881,-11.98691 15.32364,-16.96543zM226.42,187.30515c4.2939,4.90137 5.82794,10.58751 12.04001,11.49269c7.46423,1.08742 15.45767,-4.14227 17.5127,-8.75632c5.58105,-12.53034 -3.94587,-31.32641 -15.87091,-28.45813c-9.63034,4.05746 -13.33755,13.73868 -13.6818,25.72176z" fill="#000000" stroke-width="0.98532"/><path d="M240.1018,161.78642c11.92504,-2.86829 21.45196,15.92778 15.87091,28.45813c-2.05503,4.61405 -10.04847,9.84374 -17.5127,8.75632c-6.21207,-0.90518 -7.74611,-6.59132 -12.04001,-11.49269c0.34425,-11.98308 4.05146,-21.6643 13.6818,-25.72176zM231.89274,184.7718c0.75249,4.01258 5.28173,10.04958 9.8509,10.39817c11.80629,0.90079 12.3946,-13.85909 9.85085,-23.5327c-10.2542,-12.14065 -22.08292,0.44329 -19.70175,13.13454z" fill="#00fff4" stroke-width="0.98532"/><path d="M251.59449,171.43425c2.54375,9.67361 1.95544,24.4335 -9.85085,23.5327c-4.56917,-0.34859 -9.09841,-6.38559 -9.8509,-10.39817c-2.38117,-12.69125 9.44755,-25.27519 19.70175,-13.13454zM234.62911,187.30515c0.96045,1.87168 5.26585,5.51979 7.11453,5.47269c3.03408,-0.0777 6.43808,-5.46008 6.56727,-10.39817c0.21178,-8.08264 -3.10745,-13.73868 -11.49275,-12.03996c-1.79175,3.6065 -5.07372,11.34606 -2.18905,16.96543z" fill="#000000" stroke-width="0.98532"/><path d="M266.459,155.4174c11.8531,-1.57161 18.05931,6.14096 26.54162,10.01022c10.06383,18.41683 -8.38714,30.84487 -25.24694,32.03269c-0.98204,-14.06698 -2.24757,-26.77132 -1.29468,-42.04292zM274.87467,191.45423c7.21798,-2.92898 14.86586,-5.48361 15.53652,-13.34698c0.86295,-10.1123 -8.929,-13.49577 -17.47865,-16.68368c-0.10482,9.30681 2.05212,18.18522 1.94212,30.03066z" fill="#00fff4" stroke-width="1.02578"/><path d="M272.93255,161.42356c8.54965,3.18791 18.3416,6.57138 17.47865,16.68368c-0.67066,7.86337 -8.31854,10.41801 -15.53652,13.34698c0.11,-11.84544 -2.04695,-20.72385 -1.94212,-30.03066zM277.46404,188.11746c14.17457,-3.15323 8.83837,-16.89525 -1.94206,-18.68571c0.71667,5.22065 -0.40718,13.50781 1.94206,18.68571z" fill="#000000" stroke-width="1.02578"/><path d="M265.16432,153.41537c3.45232,0 6.90534,0 10.35766,0c0,0.22224 0,0.44513 0,0.66737c10.48009,2.76549 18.44321,8.12562 22.65751,17.35105c0,2.6694 0,5.33879 0,8.00819c-0.21558,0 -0.43179,0 -0.64737,0c-3.72748,16.00766 -18.66844,23.08357 -33.66254,25.35924c-0.43179,0 -0.92442,0.90021 -1.29468,0c-2.2405,-21.36916 -1.71745,-21.14894 -1.94212,-26.0266c-0.13594,-5.87136 0.06349,-12.30658 -0.64731,-18.01841c-0.02139,-1.03169 0,-1.33467 0,-2.00203c1.71935,-0.0067 3.69706,0.25223 4.53149,-0.66737c-0.61241,-1.73308 -1.18147,-3.91929 0.64737,-4.67143zM267.75369,197.46032c16.8598,-1.18783 35.31076,-13.61587 25.24694,-32.03269c-8.48231,-3.86926 -14.68853,-11.58183 -26.54162,-10.01022c-0.95288,15.2716 0.31264,27.97594 1.29468,42.04292z" fill="#000000" stroke-width="1.02578"/></g></g></svg>