<svg version="1.1" xmlns="http://www.w3.org/2000/svg" xmlns:xlink="http://www.w3.org/1999/xlink" width="159.8014" height="84.05" viewBox="0,0,159.8014,84.05"><g transform="translate(-140.62121,-127.72781)"><g data-paper-data="{&quot;isPaintingLayer&quot;:true}" fill-rule="nonzero" stroke="none" stroke-linecap="butt" stroke-linejoin="miter" stroke-miterlimit="10" stroke-dasharray="" stroke-dashoffset="0" style="mix-blend-mode: normal"><path d="M140.62121,211.77781v-84.05h159.8014v84.05z" fill="#ff0000" stroke-width="0"/><path d="M182.80499,143.20264c7.47071,7.12031 -0.71251,14.21091 -4.123,19.84305c5.70121,1.17321 9.75489,3.99917 13.19341,7.44112c4.63257,17.32717 -11.98539,23.94064 -30.50975,23.15023c-1.59067,-17.82977 -1.62278,-32.7865 -2.47378,-50.4344c8.65741,-1.79417 14.36685,-1.69992 23.91312,0M167.96236,163.04569c5.26832,-4.34064 16.10336,-7.22698 10.71963,-17.36265c-5.47279,0.48114 -7.04773,-0.03556 -13.19341,0c2.05823,7.25757 -1.57414,11.22207 2.47378,17.36265M167.96236,169.66004c-1.85448,6.58872 0.49886,12.37134 -0.82457,19.01628c7.85832,-0.66389 15.04542,-2.00087 19.79012,-5.78758c0.4527,-2.96154 1.84378,-8.09019 0,-10.7483c-5.6608,-1.48986 -11.19133,-3.10961 -18.96555,-2.4804" fill="#ff0000" stroke-width="1.03243"/><path d="M165.48857,145.68304c6.14569,-0.03556 7.72062,0.48114 13.19341,0c5.38373,10.13567 -5.4513,13.02201 -10.71963,17.36265c-4.04792,-6.14058 -0.41556,-10.10507 -2.47378,-17.36265M169.40535,157.87819c2.06645,-0.02394 7.03048,-3.599 6.80285,-5.5808c-0.27619,-1.80739 -5.93866,-3.96449 -7.62742,-2.68709c-1.71183,1.5122 -0.66299,7.95958 0.82457,8.2679z" fill="#000000" stroke-width="1.03243"/><path d="M186.92791,172.14044c1.84378,2.6581 0.4527,7.78676 0,10.7483c-4.7447,3.78671 -11.9318,5.12369 -19.79012,5.78758c1.32343,-6.64494 -1.02991,-12.42755 0.82457,-19.01628c7.77422,-0.62921 13.30475,0.99054 18.96555,2.4804M169.61149,186.19592c4.54183,-0.1174 7.76271,-2.18602 13.19349,-3.30718c-0.62593,-5.7115 -6.70972,-5.94958 -13.19349,-5.78758c0.63001,3.60404 -1.02001,7.65863 0,9.09475" fill="#000000" stroke-width="1.03243"/><path d="M164.664,202.73179c-0.37187,-1.351 4.49479,-1.351 4.12292,0c-1.37455,0 -2.74837,0 -4.12292,0z" fill="#ffffff" stroke-width="1.03243"/><path d="M166.31314,139.06869c1.92381,0 3.84841,0 5.77214,0c1.25834,0 2.4309,0.72835 3.74282,0.8532c2.75085,0.26211 6.0607,-0.46136 8.62602,0.80035c4.47339,5.35185 4.98463,16.12001 0.82457,21.49668c6.12013,0.47873 7.37679,5.83218 9.89506,9.92153c0,3.03185 0.92193,6.2125 0,9.09475c-1.34244,4.16702 -3.39148,8.6921 -6.80285,11.57507c-4.86506,4.1092 -10.99094,6.24068 -16.69791,8.68136c-2.25606,0.89212 -4.77433,0.94994 -7.00899,1.24104c-1.17919,0.15456 -2.38305,0 -3.57294,0c-2.38058,0 -4.76451,0 -7.14668,0c-0.93758,-9.06504 -1.09429,-18.26718 -1.4612,-27.39173c-0.12867,-3.27242 0.00823,-6.6797 0.01813,-10.02155c-0.00407,-2.40432 0.03714,-4.75988 0,-7.23443c-0.06014,-4.12818 -0.72234,-8.15226 -0.20614,-12.40193c0.12947,-1.06246 1.46448,-1.40313 2.0615,-2.27371c0.78168,-0.78873 0.97712,-2.26874 2.06142,-2.68709c3.12025,-1.19555 6.61651,0.45807 9.89506,-1.65355M158.89187,143.20264c0.851,17.6479 0.88311,32.60463 2.47378,50.4344c18.52435,0.79042 35.14231,-5.82305 30.50975,-23.15023c-3.43852,-3.44195 -7.4922,-6.26791 -13.19341,-7.44112c3.41049,-5.63214 11.59371,-12.72274 4.123,-19.84305c-9.54627,-1.69992 -15.25571,-1.79417 -23.91312,0" fill="#000000" stroke-width="1.03243"/><path d="M247.27496,140.45029c15.00093,-1.93456 22.85533,7.55917 33.5903,12.322c12.73648,22.67005 -10.61452,37.96825 -31.95178,39.4304c-1.24284,-17.31564 -2.84446,-32.95395 -1.63851,-51.7524zM257.92558,184.80954c9.13487,-3.6054 18.8138,-6.75001 19.66257,-16.42937c1.09213,-12.44765 -11.30028,-16.61251 -22.12046,-20.53665c-0.13266,11.45615 2.5971,22.38496 2.45789,36.96601z" fill="#ff0000" stroke-width="1.02578"/><path d="M255.46769,147.84353c10.82018,3.92413 23.21259,8.08899 22.12046,20.53665c-0.84877,9.67936 -10.5277,12.82396 -19.66257,16.42937c0.13921,-14.58106 -2.59055,-25.50986 -2.45789,-36.96601zM261.20261,180.70218c17.93891,-3.88145 11.18558,-20.79708 -2.45781,-23.00103c0.90699,6.42632 -0.51532,16.62733 2.45781,23.00103z" fill="#000000" stroke-width="1.02578"/><path d="M245.63644,137.98591c4.36916,0 8.73919,0 13.10835,0c0,0.27356 0,0.54793 0,0.82149c13.2633,3.40416 23.34118,10.00217 28.67467,21.35814c0,3.28587 0,6.57175 0,9.85762c-0.27283,0 -0.54646,0 -0.8193,0c-4.71739,19.70451 -23.62623,28.41454 -42.60232,31.21575c-0.54646,0 -1.16992,1.1081 -1.63851,0c-2.83551,-26.3042 -2.17356,-26.03312 -2.45789,-32.03724c-0.17204,-7.2273 0.08035,-15.14868 -0.81922,-22.17962c-0.02708,-1.26995 0,-1.6429 0,-2.46438c2.17595,-0.00825 4.67889,0.31048 5.73492,-0.82149c-0.77505,-2.13332 -1.49523,-4.82442 0.8193,-5.75026zM248.91347,192.2027c21.33726,-1.46215 44.68826,-16.76035 31.95178,-39.4304c-10.73496,-4.76284 -18.58937,-14.25656 -33.5903,-12.322c-1.20594,18.79845 0.39567,34.43676 1.63851,51.7524z" fill="#000000" stroke-width="1.02578"/><path d="M213.74905,142.25563c0.49591,0 0.99102,0 1.48684,0c-0.33529,1.21726 4.05152,1.21726 3.71695,0c0.24759,0 0.49583,0 0.74342,0c0.02005,0.72531 0.90995,0.57844 1.48676,0.74541c-0.37019,6.39164 4.30574,10.66277 2.97361,15.65312c6.58872,10.7857 7.39013,27.37499 15.61137,36.5238c0,0.49723 0,0.99367 0,1.49082c-4.23594,-0.16545 -0.4126,3.87304 -2.23018,5.21771c-2.0377,2.42915 -7.97668,0.94658 -9.66416,3.72689c-0.74342,0 -1.48684,0 -2.23026,0c-3.00252,-7.26823 -2.51564,-14.20851 -6.69055,-20.87075c-10.25287,-1.83221 -10.22915,6.63838 -11.89434,13.41689c-1.75736,1.71665 -3.45234,3.49513 -3.71695,6.70845c-4.1103,-0.3518 -8.47251,-0.44942 -11.89434,-1.49074c0,-0.49715 0,-0.99359 0,-1.49074c4.48712,-17.61419 8.94677,-35.25601 12.63768,-53.66774c7.14261,1.94393 3.75712,-6.66825 9.66416,-5.96312zM210.77553,145.9826c-3.57135,17.28993 -8.61747,33.10106 -11.89434,50.68618c2.87545,-0.39881 3.62925,1.33049 6.69055,0.74541c1.00651,-6.44466 2.978,-11.92175 3.71695,-18.63468c5.00308,0.04701 8.05104,-1.86569 12.63776,-2.23615c2.26141,7.17357 5.66695,13.20075 8.1774,20.12542c2.75652,0.52774 3.19061,-1.27315 5.94713,-0.74541c-2.74829,-7.08267 -6.8816,-15.40263 -7.43397,-22.36157c-5.1212,-7.28833 -6.48313,-18.34615 -8.92074,-28.32461c-4.2976,0.45319 -6.5003,-1.58916 -8.92074,0.74541z" fill="#000000" stroke-width="0.93077"/><path d="M215.2359,142.25563c1.23925,0 2.4777,0 3.71695,0c0.33457,1.21726 -4.05224,1.21726 -3.71695,0z" fill="none" stroke-width="0.93077"/><path d="M219.69626,142.25563c6.69055,0 13.3811,0 20.07174,0c0,17.64102 0,35.28131 0,52.92233c-8.22124,-9.14881 -9.02265,-25.7381 -15.61137,-36.5238c1.33214,-4.99035 -3.3438,-9.26148 -2.97361,-15.65312c-0.57681,-0.16697 -1.46672,-0.0201 -1.48676,-0.74541z" fill="none" stroke-width="0.93077"/><path d="M219.69626,145.23719c2.4376,9.97846 3.79953,21.03628 8.92074,28.32461c0.55237,6.95895 4.68568,15.2789 7.43397,22.36157c-2.75652,-0.52774 -3.19061,1.27315 -5.94713,0.74541c-2.51044,-6.92467 -5.91598,-12.95185 -8.1774,-20.12542c-4.58672,0.37046 -7.63468,2.28316 -12.63776,2.23615c-0.73895,6.71293 -2.71044,12.19003 -3.71695,18.63468c-3.0613,0.58508 -3.81511,-1.14422 -6.69055,-0.74541c3.27687,-17.58512 8.323,-33.39625 11.89434,-50.68618c2.42043,-2.33457 4.62314,-0.29222 8.92074,-0.74541zM211.51887,174.30721c4.20319,-1.10466 6.55533,-1.53999 10.40758,-0.74541c-0.901,-7.0476 -3.9266,-11.96411 -5.20379,-18.6346c-0.16429,-0.58068 -0.62298,-0.8669 -1.48676,-0.74541c-2.20047,5.32358 -3.93331,14.8354 -3.71703,20.12542z" fill="#ff0000" stroke-width="0.93077"/><path d="M215.2359,154.18179c0.86378,-0.12149 1.32247,0.16473 1.48676,0.74541c1.27719,6.67049 4.30279,11.58701 5.20379,18.6346c-3.85225,-0.79458 -6.20439,-0.35925 -10.40758,0.74541c-0.21629,-5.29002 1.51655,-14.80185 3.71703,-20.12542zM215.2359,170.58031c0.11893,-2.35547 0.02604,-4.49841 -1.48684,-5.21771c0.54199,1.69279 -1.33956,5.81545 1.48684,5.21771z" fill="#000000" stroke-width="0.93077"/><path d="M213.74905,165.3626c1.51288,0.7193 1.60577,2.86224 1.48684,5.21771c-2.82641,0.59774 -0.94485,-3.52492 -1.48684,-5.21771z" fill="none" stroke-width="0.93077"/><path d="M225.64339,205.61338c-11.15244,-0.49491 -24.28227,0.99134 -34.19618,-0.74541c0,-0.49715 0,-0.99359 0,-1.49074c3.42183,1.04132 7.78404,1.13894 11.89434,1.49074c0.26461,-3.21332 1.95959,-4.99179 3.71695,-6.70845c1.66519,-6.77852 1.64147,-15.24911 11.89434,-13.41689c4.17492,6.66224 3.68803,13.60253 6.69055,20.87075z" fill="none" stroke-width="0.93077"/><path d="M239.768,196.66878c0,2.98156 0,5.96304 0,8.9446c-3.96454,0 -7.92988,0 -11.89434,0c1.68747,-2.78031 7.62646,-1.29774 9.66416,-3.72689c1.81758,-1.34467 -2.00575,-5.38316 2.23018,-5.21771z" fill="none" stroke-width="0.93077"/></g></g></svg>